<svg width="23" height="16" viewBox="0 0 23 16" fill="none" xmlns="http://www.w3.org/2000/svg">
<path d="M9.57348 1.74698C10.3086 0.974278 11.3479 0.503937 12.4886 0.503937C14.0096 0.503937 15.3277 1.34383 16.0375 2.59528C16.6543 2.32651 17.3303 2.17533 18.04 2.17533C20.7777 2.17533 23 4.40105 23 7.14751C23 9.89396 20.7777 12.1197 18.04 12.1197C17.7021 12.1197 17.381 12.0861 17.0599 12.0189C16.4431 13.1192 15.2517 13.8667 13.8997 13.8667C13.3336 13.8667 12.7928 13.7323 12.3112 13.5055C11.6774 14.9753 10.2156 16.0084 8.50882 16.0084C6.72594 16.0084 5.21345 14.8913 4.63042 13.3207C4.37693 13.3711 4.11499 13.4047 3.8446 13.4047C1.71528 13.3879 0 11.6661 0 9.53281C0 8.10499 0.76892 6.86194 1.91807 6.19003C1.68148 5.65249 1.55474 5.05617 1.55474 4.42625C1.55474 1.98215 3.54886 0 6.01616 0C7.46951 0 8.75386 0.680315 9.57348 1.74698V1.74698Z" fill="#0D9DDA"/>
</svg>
